<?xml version="1.0" encoding="UTF-8"?>
<svg version="1.1" xmlns="http://www.w3.org/2000/svg" width="48" height="48">
<path d="M0 0 C15.84 0 31.68 0 48 0 C48 15.84 48 31.68 48 48 C32.16 48 16.32 48 0 48 C0 32.16 0 16.32 0 0 Z " fill="#F7F8FA" transform="translate(0,0)"/>
<path d="M0 0 C3.3 0 6.6 0 10 0 C10 15.84 10 31.68 10 48 C4.72 48 -0.56 48 -6 48 C-6.33 46.68 -6.66 45.36 -7 44 C-7.804375 43.236875 -8.60875 42.47375 -9.4375 41.6875 C-14.34467639 36.54094916 -14.28511494 30.29348591 -14.125 23.5625 C-14.11146484 22.46518555 -14.11146484 22.46518555 -14.09765625 21.34570312 C-14.07436153 19.56365702 -14.0385019 17.78178241 -14 16 C-11.36 16 -8.72 16 -6 16 C-6 15.01 -6 14.02 -6 13 C-6.66 13 -7.32 13 -8 13 C-8.25 7.375 -8.25 7.375 -6 4 C-2.875 3.8125 -2.875 3.8125 0 4 C0.66 5.65 1.32 7.3 2 9 C2.99 9 3.98 9 5 9 C2.525 4.545 2.525 4.545 0 0 Z " fill="#F9FBFD" transform="translate(38,0)"/>
<path d="M0 0 C10.56 0 21.12 0 32 0 C30.68 2.31 29.36 4.62 28 7 C27.21546654 10.27312468 27.21546654 10.27312468 27 13 C25.35 13 23.7 13 22 13 C22 17.95 22 22.9 22 28 C21.34 28 20.68 28 20 28 C20 23.05 20 18.1 20 13 C15.38 13 10.76 13 6 13 C6 13.99 6 14.98 6 16 C9.63 16 13.26 16 17 16 C17 21.28 17 26.56 17 32 C15.35 30.35 13.7 28.7 12 27 C8.5 26.16666667 8.5 26.16666667 5 27 C3.35 28.65 1.7 30.3 0 32 C0 21.44 0 10.88 0 0 Z " fill="#F9FCFC" transform="translate(0,0)"/>
<path d="M0 0 C4.62 0 9.24 0 14 0 C14.81298368 24.32176182 14.81298368 24.32176182 10 32 C9.01 32.66 8.02 33.32 7 34 C6.01 33.67 5.02 33.34 4 33 C4.99 31.68 5.98 30.36 7 29 C5.329375 29.061875 5.329375 29.061875 3.625 29.125 C0 29 0 29 -2 27 C-2.34490322 22.94738713 -2.30163882 21.45245824 0 18 C2.5625 17.875 2.5625 17.875 5 18 C5.33 17.67 5.66 17.34 6 17 C3.12586875 16.66602213 3.12586875 16.66602213 0 17 C-2.82726947 19.63228537 -3.47784461 22.2404812 -4 26 C-4.66 26 -5.32 26 -6 26 C-6.4152799 21.84720104 -6.41253023 18.95151199 -3.9375 15.5625 C-1 13 -1 13 2.5625 12.375 C6 13 6 13 10 17 C10.33 12.38 10.66 7.76 11 3 C7.37 3 3.74 3 0 3 C0 2.01 0 1.02 0 0 Z " fill="#31557D" transform="translate(6,13)"/>
<path d="M0 0 C0.33 0 0.66 0 1 0 C1 11.55 1 23.1 1 35 C0.34 33.68 -0.32 32.36 -1 31 C-1.825 30.236875 -2.65 29.47375 -3.5 28.6875 C-8.3232014 23.5025585 -8.28468099 17.27524329 -8.125 10.5625 C-8.11597656 9.83095703 -8.10695313 9.09941406 -8.09765625 8.34570312 C-8.07436153 6.56365702 -8.0385019 4.78178241 -8 3 C-5.36 3 -2.72 3 0 3 C0 2.01 0 1.02 0 0 Z " fill="#EEF9F9" transform="translate(32,13)"/>
<path d="M0 0 C5 1 5 1 7.3125 3.3125 C10.1427206 8.06404921 9.61122476 13.68816574 9 19 C7.47506657 23.2117209 6.72020689 24.51986208 3 27 C2.01 27 1.02 27 0 27 C0 18.09 0 9.18 0 0 Z " fill="#FDFDFD" transform="translate(35,17)"/>
<path d="M0 0 C7.31937173 1.21989529 7.31937173 1.21989529 11 5 C14.69254559 11.23912875 15.17219602 18.06587257 13.49609375 25.12109375 C11.93361816 29.27281461 9.75827081 31.72755718 6 34 C3.03 34.495 3.03 34.495 0 35 C0 23.45 0 11.9 0 0 Z M2 4 C2 12.91 2 21.82 2 31 C6.22159105 29.94460224 7.27225341 29.19804773 10 26 C11.75770785 20.72687644 12.11148738 14.22572967 10.28125 8.9140625 C9.250986 7.06670915 9.250986 7.06670915 7 5 C5.35 4.67 3.7 4.34 2 4 Z " fill="#0C3A69" transform="translate(33,13)"/>
<path d="M0 0 C3.1875 0.375 3.1875 0.375 5.5 2.625 C6.95919188 5.00294232 7.78369773 6.64933465 8.1875 9.375 C7.1975 9.375 6.2075 9.375 5.1875 9.375 C4.5275 8.055 3.8675 6.735 3.1875 5.375 C1.2075 5.375 -0.7725 5.375 -2.8125 5.375 C-3.4725 8.015 -4.1325 10.655 -4.8125 13.375 C-4.1525 13.375 -3.4925 13.375 -2.8125 13.375 C-2.8125 14.365 -2.8125 15.355 -2.8125 16.375 C-5.4525 16.375 -8.0925 16.375 -10.8125 16.375 C-10.4955248 28.71544411 -10.4955248 28.71544411 -6.8125 40.375 C-6.4825 41.365 -6.1525 42.355 -5.8125 43.375 C-4.8225 43.705 -3.8325 44.035 -2.8125 44.375 C-3.1425 45.695 -3.4725 47.015 -3.8125 48.375 C-8.37522498 44.1925021 -12.38461786 40.0227934 -13.13183594 33.65258789 C-13.20523803 30.57145979 -13.16192607 27.51779624 -13.0625 24.4375 C-13.04445313 23.37208984 -13.02640625 22.30667969 -13.0078125 21.20898438 C-12.96095557 18.59671071 -12.89536926 15.98633774 -12.8125 13.375 C-11.1625 13.375 -9.5125 13.375 -7.8125 13.375 C-7.895 12.50875 -7.9775 11.6425 -8.0625 10.75 C-7.68812412 5.69592556 -5.27343618 0.70312482 0 0 Z " fill="#336C9E" transform="translate(34.8125,-0.375)"/>
<path d="M0 0 C3.63 0 7.26 0 11 0 C11 11.88 11 23.76 11 36 C7.04 36 3.08 36 -1 36 C-0.01 35.34 0.98 34.68 2 34 C6.2736466 31.08141208 7.97788168 29.11059158 9 24 C9.70262551 16.94131606 9.46353353 10.78975914 5 5 C2.39975951 3.13689678 2.39975951 3.13689678 0 2 C0 1.34 0 0.68 0 0 Z " fill="#588AAC" transform="translate(37,12)"/>
<path d="M0 0 C4.62 0 9.24 0 14 0 C14.81298368 24.32176182 14.81298368 24.32176182 10 32 C9.01 32.66 8.02 33.32 7 34 C6.01 33.67 5.02 33.34 4 33 C5.26953125 31.53515625 6.5390625 30.0703125 7.80859375 28.60546875 C10.0264184 25.61685913 10.16405598 22.70439478 10.31640625 19.11328125 C10.35830078 18.17548828 10.40019531 17.23769531 10.44335938 16.27148438 C10.48267578 15.29501953 10.52199219 14.31855469 10.5625 13.3125 C10.60568359 12.32443359 10.64886719 11.33636719 10.69335938 10.31835938 C10.79941542 7.87907028 10.90020974 5.43955346 11 3 C7.37 3 3.74 3 0 3 C0 2.01 0 1.02 0 0 Z " fill="#133E6C" transform="translate(6,13)"/>
<path d="M0 0 C0.33 0.66 0.66 1.32 1 2 C-0.134375 2.12375 -1.26875 2.2475 -2.4375 2.375 C-4.2009375 2.684375 -4.2009375 2.684375 -6 3 C-7.36623674 5.73247348 -7.128426 7.98198902 -7 11 C-6.01732141 12.20561184 -6.01732141 12.20561184 -4.15234375 12.09765625 C-2.1015625 12.06510417 -0.05078125 12.03255208 2 12 C1.690625 12.598125 1.38125 13.19625 1.0625 13.8125 C-0.10209704 16.08956772 -0.10209704 16.08956772 -1 19 C-4.63 19 -8.26 19 -12 19 C-12 16.03 -12 13.06 -12 10 C-11.34 10 -10.68 10 -10 10 C-9.896875 8.906875 -9.79375 7.81375 -9.6875 6.6875 C-9 3 -9 3 -7.8125 1.0625 C-5.19357381 -0.47273259 -2.97085195 -0.1980568 0 0 Z " fill="#3A5B82" transform="translate(12,29)"/>
<path d="M0 0 C5 1 5 1 7.3125 4.0625 C7.869375 5.031875 8.42625 6.00125 9 7 C8.67 7.66 8.34 8.32 8 9 C6.68 9 5.36 9 4 9 C4 9.66 4 10.32 4 11 C5.32 11.33 6.64 11.66 8 12 C6.02 12.33 4.04 12.66 2 13 C1.67 17.29 1.34 21.58 1 26 C1.66 26.33 2.32 26.66 3 27 C2.01 27 1.02 27 0 27 C0 18.09 0 9.18 0 0 Z " fill="#B4C4DD" transform="translate(35,17)"/>
<path d="M0 0 C3 0.625 3 0.625 5.3125 2.875 C6.77169188 5.25294232 7.59619773 6.89933465 8 9.625 C7.01 9.625 6.02 9.625 5 9.625 C4.34 8.305 3.68 6.985 3 5.625 C1.02 5.625 -0.96 5.625 -3 5.625 C-3.66 7.935 -4.32 10.245 -5 12.625 C-5.99 12.625 -6.98 12.625 -8 12.625 C-7.52208595 6.53159586 -6.64262937 1.38388112 0 0 Z " fill="#447EAA" transform="translate(35,-0.625)"/>
<path d="M0 0 C0.33 0 0.66 0 1 0 C1 7.59 1 15.18 1 23 C-2.96 23 -6.92 23 -11 23 C-10.01 22.34 -9.02 21.68 -8 21 C-3.70655253 18.06788953 -2.11214128 16.09731421 -1 11 C-0.56569567 7.3387135 -0.2487092 3.67827818 0 0 Z " fill="#EEF3F6" transform="translate(47,25)"/>
<path d="M0 0 C0.33 0.66 0.66 1.32 1 2 C-0.134375 2.12375 -1.26875 2.2475 -2.4375 2.375 C-4.2009375 2.684375 -4.2009375 2.684375 -6 3 C-7.36623674 5.73247348 -7.128426 7.98198902 -7 11 C-6.01732141 12.20561184 -6.01732141 12.20561184 -4.15234375 12.09765625 C-2.1015625 12.06510417 -0.05078125 12.03255208 2 12 C1.67 12.99 1.34 13.98 1 15 C-5.49033655 15.36737754 -5.49033655 15.36737754 -7.70703125 13.76953125 C-9.33558697 11.54072236 -9.40239943 10.239943 -9.375 7.5 C-9.38273438 6.7265625 -9.39046875 5.953125 -9.3984375 5.15625 C-8.39494497 -0.27441547 -4.86367661 -0.32424511 0 0 Z " fill="#DFE3E9" transform="translate(12,29)"/>
<path d="M0 0 C0.268125 0.556875 0.53625 1.11375 0.8125 1.6875 C2.00699665 4.08933398 2.00699665 4.08933398 3.625 6.625 C5 9 5 9 5 11 C5.99 11.33 6.98 11.66 8 12 C7.67 13.32 7.34 14.64 7 16 C3.00099758 12.33424778 0.36442362 8.91072598 -2 4 C-1 1 -1 1 0 0 Z " fill="#4478A7" transform="translate(24,32)"/>
<path d="M0 0 C0.66 0.33 1.32 0.66 2 1 C1.360625 2.051875 0.72125 3.10375 0.0625 4.1875 C-1.61754452 7.10828412 -2.58996052 9.6171743 -3 13 C-3.66 13 -4.32 13 -5 13 C-5.602537 6.97463002 -5.602537 6.97463002 -3.88671875 4.19921875 C-2.65378147 2.74400545 -1.33191067 1.36520843 0 0 Z " fill="#1E4770" transform="translate(5,26)"/>
<path d="M0 0 C1.1446875 1.175625 1.1446875 1.175625 2.3125 2.375 C4.90891805 5.07257717 4.90891805 5.07257717 8 7 C5.36 7 2.72 7 0 7 C0 4.69 0 2.38 0 0 Z " fill="#EEF8FA" transform="translate(0,41)"/>
<path d="M0 0 C0.66 0.33 1.32 0.66 2 1 C1.67 2.65 1.34 4.3 1 6 C0.01 6 -0.98 6 -2 6 C-1.125 1.125 -1.125 1.125 0 0 Z " fill="#D1DCE4" transform="translate(8,33)"/>
<path d="M0 0 C0.99 0 1.98 0 3 0 C3.66 2.97 4.32 5.94 5 9 C4.34 9 3.68 9 3 9 C2.01 6.03 1.02 3.06 0 0 Z " fill="#A4BDD1" transform="translate(43,16)"/>
</svg>
